***************************************************************

[IMG]http://www.torrentforce.org/imghost/3/greyshadow_tfbanner.png[/IMG]

***************************************************************

[IMG]http://www.torrentforce.org/imghost/4/greyshadow_zookeeper.jpg[/IMG]

***************************************************************

FILM TITLE: Zookeeper (2011)

***************************************************************

Genre: Comedy | Family | Romance   

Rated PG for some rude and suggestive humor, and language

Release: 29 July 2011 (UK)

Director: Frank Coraci

Writer: Nick Bakay (screenplay), Rock Reuben (screenplay)

Stars: Kevin James, Rosario Dawson and Leslie Bibb

Country: USA

Language: English

Plot:
A group of zoo animals decide to break their code of silence in 
order to help their lovable zoo keeper find love -- without opting 
to leave his current job for something more illustrious.

IMDB Rating: 4.7/10 from 10,680 users   Metascore: 30/100
 
http://www.imdb.com/title/tt1222817/ 

****************************************************************

[IMG]http://www.torrentforce.org/imghost/4/greyshadow_zookeeperxvid5.png[/IMG]
[IMG]http://www.torrentforce.org/imghost/4/greyshadow_zookeeperxvid6.png[/IMG]
[IMG]http://www.torrentforce.org/imghost/4/greyshadow_zookeeperxvid7.png[/IMG]
[IMG]http://www.torrentforce.org/imghost/4/greyshadow_zookeeperxvid8.png[/IMG]

****************************************************************

[IMG]http://www.torrentforce.org/imghost/2/greyshadow_mediainfo.png[/IMG]
General
Complete name                    : Zookeeper 2011 720p BDRip XviD ac3 (avi)[TFRG].avi
Format                           : AVI
Format/Info                      : Audio Video Interleave
Format profile                   : OpenDML
File size                        : 2.60 GiB
Duration                         : 1h 41mn
Overall bit rate                 : 3654 Kbps
Writing library                  : VirtualDub build 32842/release

Video
ID                               : 0
Format                           : MPEG-4 Visual
Format profile                   : Simple@L5
Format settings, BVOP            : No
Format settings, QPel            : No
Format settings, GMC             : No warppoints
Format settings, Matrix          : Default (H.263)
Codec ID                         : XVID
Codec ID/Hint                    : XviD
Duration                         : 1h 41mn
Bit rate                         : 3195 Kbps
Width                            : 1280 pixels
Height                           : 528 pixels
Display aspect ratio             : 2.40:1
Frame rate                       : 23.976 fps
Color space                      : YUV
Chroma subsampling               : 4:2:0
Bit depth                        : 8 bits
Scan type                        : Progressive
Compression mode                 : Lossy
Bits/(Pixel*Frame)               : 0.197
Stream size                      : 2.27 GiB (87%)
Writing library                  : XviD 64

Audio
ID                               : 1
Format                           : AC-3
Format/Info                      : Audio Coding 3
Mode extension                   : CM (complete main)
Codec ID                         : 2000
Duration                         : 1h 41mn
Bit rate mode                    : Constant
Bit rate                         : 448 Kbps
Channel(s)                       : 6 channels
Channel positions                : Front: L C R, Side: L R, LFE
Sampling rate                    : 48.0 KHz
Bit depth                        : 16 bits
Compression mode                 : Lossy
Stream size                      : 326 MiB (12%)
Alignment                        : Aligned on interleaves
Interleave, duration             : 42 ms (1.00 video frame)
Interleave, preload duration     : 512 ms

****************************************************************

Video Source: Zookeeper 2011 BluRay 1080p AVC DTS-HD MA5 1-CHDBits (37.21GB)

Thanks: (chdbits.org)

****************************************************************

I provide a small sample, so please download this to check your 
compatibility first if you are unsure.

****************************************************************

7th October 2011

I am re-introducing my warning to all downloaders, please please
please use a proxy or vpn service, it is the only secure way to
keep your own ip address from being seen during downloading or
uploading/seeding, this WILL stop isp letters, as for advice to 
which one then thats simple, vpntunnel.se server based in Sweden 
is the right one to use, I have cancelled my vpn and transfered 
to a Swedish one already !!! enough said. 

****************************************************************

A big thanks to all the sites out there who care and share and
who make it possible for you to download this torrent for free.

Greetz to Westy, Ripwyn, mustang, noir, Blackjesus, MXMG, The Stig 
and all the other outstanding members of our community of file 
sharers and a special mention to our friends at 1337x.

****************************************************************